<svg width="612" height="612" xmlns="http://www.w3.org/2000/svg">

 <g>
  <title>background</title>
  <rect fill="none" id="canvas_background" height="402" width="582" y="-1" x="-1"/>
 </g>
 <g>
  <title>Layer 1</title>
  <g id="svg_1">
   <path id="svg_2" d="m612,510c0,56.1 -45.9,102 -102,102l-408,0c-56.1,0 -102,-45.9 -102,-102l0,-408c0,-56.1 45.9,-102 102,-102l408,0c56.1,0 102,45.9 102,102l0,408z" fill="#563D7C"/>
   <path id="svg_3" d="m166.3,133l173.5,0c32,0 57.7,7.3 77,22s29,36.8 29,66.5c0,18 -4.4,33.4 -13.2,46.2c-8.8,12.8 -21.4,22.8 -37.8,29.8l0,1c22,4.7 38.7,15.1 50,31.2c11.3,16.2 17,36.4 17,60.8c0,14 -2.5,27.1 -7.5,39.2c-5,12.2 -12.8,22.7 -23.5,31.5s-24.3,15.8 -41,21s-36.5,7.8 -59.5,7.8l-164,0l0,-357zm62.5,149.5l102,0c15,0 27.5,-4.2 37.5,-12.8s15,-20.8 15,-36.8c0,-18 -4.5,-30.7 -13.5,-38s-22,-11 -39,-11l-102,0l0,98.6zm0,156.5l110.5,0c19,0 33.8,-4.9 44.2,-14.8c10.5,-9.8 15.8,-23.8 15.8,-41.8c0,-17.7 -5.2,-31.2 -15.8,-40.8s-25.2,-14.2 -44.2,-14.2l-110.5,0l0,111.6z" fill="#FFF"/>
  </g>
  <polyline stroke-linecap="round" id="svg_4" points="207.5,292 207.5,292 " stroke-width="1.5" stroke="#000" fill="none"/>
  <path d="m210.5,188c0,0 0,3 0,8c0,5 0,12 0,19c0,6 0,12 0,19c0,6 0,13 0,18c0,7 0,13 0,18c0,4 0,7 -1,9l0,2l-1,0" id="svg_5" stroke-width="1.5" stroke="#000" fill="none"/>
  <polyline stroke-linecap="round" id="svg_6" points="201.5,350 201.5,350 " stroke-width="1.5" stroke="#000" fill="none"/>
  <rect id="svg_8" height="441" width="412" y="95" x="103.5" stroke-width="1.5" fill="#563d7c"/>
  <text stroke="null" transform="matrix(3.162122729533934,0,0,6.019707992536212,-841.0160374203273,-901.8134935252162) " xml:space="preserve" text-anchor="start" font-family="'Trebuchet MS', Gadget, sans-serif" font-size="24" id="svg_9" y="207.149751" x="275.286297" stroke-width="0" fill="#ffffff">Cloud Telemetry</text>
 </g>
</svg>